Coordinates
version=1
nRows=9
nColumns=24
inDegrees=yes

Units are S.I. units (second, meters, Newtons, ...)
Angles are in degrees.

endheader
time	pelvis_tilt	pelvis_list	pelvis_rotation	pelvis_tx	pelvis_ty	pelvis_tz	hip_flexion_r	hip_adduction_r	hip_rotation_r	knee_angle_r	ankle_angle_r	subtalar_angle_r	mtp_angle_r	hip_flexion_l	hip_adduction_l	hip_rotation_l	knee_angle_l	ankle_angle_l	subtalar_angle_l	mtp_angle_l	lumbar_extension	lumbar_bending	lumbar_rotation
      3.47000000	     -1.78166863	     -2.67926047	     -8.73782992	     -0.78772256	      0.90364852	      0.25746448	    -10.75430427	      7.94171046	     12.32312056	    -23.20293563	     25.38743585	     -8.29593055	      0.00000000	     32.27515217	     -4.09485856	     -6.29051448	    -12.82992575	     10.83864315	     -9.50418902	      0.00000000	    -10.80410696	      0.43509231	      3.78365531
      3.47500000	     -1.75220154	     -2.45891399	     -8.73393110	     -0.77961827	      0.90257191	      0.25714268	    -10.82721051	      7.57258980	     11.78436918	    -24.03317273	     25.23077511	     -7.59692744	      0.00000000	     32.39674682	     -3.82049436	     -6.30815981	    -13.82322794	     10.51681413	     -9.88599231	      0.00000000	    -10.70671838	      0.13155689	      3.70009628
      3.48000000	     -1.73014702	     -2.18616601	     -8.71478177	     -0.77146112	      0.90156857	      0.25679524	    -10.83875435	      7.14311134	     11.17360406	    -24.93578824	     25.00652468	     -6.85919958	      0.00000000	     32.51851358	     -3.48460875	     -6.31141140	    -14.81590137	     10.07965922	    -10.27328032	      0.00000000	    -10.58614241	     -0.23091506	      3.58449975
      3.48500000	     -1.71679513	     -1.86786548	     -8.65880785	     -0.76328991	      0.90064965	      0.25638116	    -10.77495711	      6.66639132	     10.49958584	    -25.93624375	     24.69594925	     -6.08151933	      0.00000000	     32.64737619	     -3.08305606	     -6.30445542	    -15.79089043	      9.52124091	    -10.66560513	      0.00000000	    -10.44764720	     -0.63987595	      3.44163285
      3.49000000	     -1.71983742	     -1.49189654	     -8.58319091	     -0.75510329	      0.89982299	      0.25594368	    -10.63353335	      6.12715357	      9.77258971	    -27.01346911	     24.29333979	     -5.29475449	      0.00000000	     32.79798663	     -2.61820741	     -6.28556868	    -16.76214058	      8.87086266	    -11.04005010	      0.00000000	    -10.28017110	     -1.11430188	      3.26170666
      3.49500000	     -1.72958681	     -1.10129886	     -8.50027580	     -0.74703312	      0.89907998	      0.25541382	    -10.39345549	      5.55147884	      8.96042332	    -28.22220984	     23.83536032	     -4.39562425	      0.00000000	     32.97013195	     -2.11868054	     -6.16906429	    -17.73681713	      8.12505075	    -11.52149076	      0.00000000	    -10.12695672	     -1.59569591	      3.08240102
      3.50000000	     -1.76601689	     -0.62245583	     -8.37882868	     -0.73887830	      0.89843333	      0.25490076	    -10.07454886	      4.89873825	      8.14876563	    -29.49400641	     23.23261767	     -3.58552753	      0.00000000	     33.17991722	     -1.53105392	     -6.10410287	    -18.71523922	      7.38945701	    -11.88170825	      0.00000000	     -9.91402312	     -2.18329153	      2.84768454
      3.50500000	     -1.81608253	     -0.11001499	     -8.24385038	     -0.73076560	      0.89786654	      0.25437012	     -9.66651240	      4.20471589	      7.31343440	    -30.87182869	     22.52088202	     -2.77555481	      0.00000000	     33.42207009	     -0.90414700	     -6.02380813	    -19.71792679	      6.67456655	    -12.23426695	      0.00000000	     -9.68899636	     -2.81206987	      2.59736343
      3.51000000	     -1.87703659	      0.43514062	     -8.09459162	     -0.72265168	      0.89739029	      0.25381962	     -9.18329773	      3.47216090	      6.48508263	    -32.33851922	     21.67121538	     -1.99699205	      0.00000000	     33.68411187	     -0.23747919	     -5.92569685	    -20.73855246	      6.01218415	    -12.56561114	      0.00000000	     -9.44754487	     -3.47729187	      2.33346448
